<svg xmlns="http://www.w3.org/2000/svg" xmlns:xlink="http://www.w3.org/1999/xlink" width="0" height="0">
<symbol id="icon-3d-square" width="24" height="24" viewBox="0 0 24 24" fill="none">
<path d="M14 21.25H8C5.3424 21.25 3.56492 20.6803 2.4423 19.5577C1.31968 18.4351 0.75 16.6576 0.75 14V8C0.75 5.3424 1.31968 3.56492 2.4423 2.4423C3.56492 1.31968 5.3424 0.75 8 0.75H14C16.6576 0.75 18.4351 1.31968 19.5577 2.4423C20.6803 3.56492 21.25 5.3424 21.25 8V14C21.25 16.6576 20.6803 18.4351 19.5577 19.5577C18.4351 20.6803 16.6576 21.25 14 21.25ZM8 1.25C5.65972 1.25 3.92432 1.66107 2.7927 2.7927C1.66107 3.92432 1.25 5.65972 1.25 8V14C1.25 16.3403 1.66107 18.0757 2.7927 19.2073C3.92432 20.3389 5.65972 20.75 8 20.75H14C16.3403 20.75 18.0757 20.3389 19.2073 19.2073C20.3389 18.0757 20.75 16.3403 20.75 14V8C20.75 5.65972 20.3389 3.92432 19.2073 2.7927C18.0757 1.66107 16.3403 1.25 14 1.25H8Z"/>
<path d="M10.8725 11.5478L10.8706 11.5467L5.57255 8.48781C5.57231 8.48767 5.57207 8.48753 5.57183 8.48739C5.44767 8.41445 5.41595 8.26259 5.47934 8.15695L5.47937 8.15697L5.48248 8.15164C5.55524 8.0269 5.7075 7.99492 5.81337 8.05845L5.81334 8.0585L5.81999 8.06235L10.74 10.9124L10.9905 11.0575L11.2411 10.9125L16.1311 8.08246L16.1325 8.08159C16.2507 8.01265 16.4033 8.05725 16.4665 8.16777C16.5343 8.28644 16.4844 8.44735 16.3825 8.50557L16.3804 8.5068L11.1269 11.5431C11.0772 11.5693 11.0308 11.5797 11.0006 11.5797C10.9489 11.5797 10.9077 11.5683 10.8725 11.5478Z"/>
<path d="M11 17.0201C10.8661 17.0201 10.75 16.904 10.75 16.7701V11.3301C10.75 11.1963 10.8661 11.0801 11 11.0801C11.1339 11.0801 11.25 11.1963 11.25 11.3301V16.7701C11.25 16.904 11.1339 17.0201 11 17.0201Z"/>
<path d="M6.43331 15.1529L6.43191 15.1521C6.04677 14.9395 5.68157 14.5621 5.41179 14.101C5.14211 13.6402 4.99023 13.134 4.99023 12.6898V9.2998C4.99023 8.86275 5.14331 8.35942 5.41509 7.89684C5.68631 7.43523 6.05251 7.0538 6.43544 6.83557L9.63272 5.05711C9.63284 5.05704 9.63296 5.05698 9.63308 5.05691C10.4022 4.63076 11.5984 4.63077 12.3675 5.05693C12.3676 5.05699 12.3677 5.05705 12.3678 5.05711L15.5671 6.83676L15.5685 6.83753C15.9537 7.05016 16.3189 7.42754 16.5887 7.88859C16.8584 8.34947 17.0103 8.85567 17.0103 9.2998V12.6898C17.0103 13.1269 16.8572 13.6302 16.5854 14.0928C16.3142 14.5544 15.9479 14.9358 15.565 15.1541L12.3672 16.9329L12.3671 16.9328L12.3642 16.9345C11.9971 17.142 11.5172 17.2498 11.0002 17.2498C10.4909 17.2498 10.0065 17.1351 9.63114 16.9316L6.43331 15.1529ZM11.0002 5.2498C10.6238 5.2498 10.2086 5.31604 9.87583 5.50359L6.67896 7.28189C6.67865 7.28206 6.67833 7.28223 6.67802 7.28241C6.32869 7.47521 6.03898 7.81235 5.84002 8.15217C5.64086 8.49233 5.49023 8.90756 5.49023 9.2998V12.6898C5.49023 13.0863 5.64034 13.5016 5.84049 13.842C6.04033 14.1819 6.33012 14.5152 6.67791 14.7071C6.67826 14.7073 6.67861 14.7075 6.67896 14.7077L9.87418 16.4851C9.87471 16.4854 9.87524 16.4857 9.87578 16.486C10.2051 16.6716 10.623 16.7448 11.0002 16.7448C11.3774 16.7448 11.7953 16.6716 12.1246 16.486C12.1252 16.4857 12.1257 16.4854 12.1262 16.4851L15.3215 14.7077C15.3219 14.7075 15.3222 14.7073 15.3226 14.7071C15.6718 14.5143 15.9615 14.1772 16.1605 13.8375C16.3596 13.4973 16.5103 13.0821 16.5103 12.6898V9.2998C16.5103 8.90327 16.3602 8.48798 16.16 8.1476C15.9601 7.80771 15.6703 7.47439 15.3225 7.28241C15.3221 7.28224 15.3218 7.28206 15.3215 7.28189L12.1262 5.50452C12.1257 5.50421 12.1251 5.5039 12.1246 5.50359C11.7918 5.31604 11.3766 5.2498 11.0002 5.2498Z"/>
</symbol>

<symbol id="icon-chevron-right" width="16" height="16" viewBox="0 0 16 16" fill="none">
<g>
<path id="Vector" d="M6 12L10 8L6 4" stroke-width="2" stroke-linecap="round" stroke-linejoin="round"/>
</g>
</symbol>

<symbol id="icon-discount-shape" width="24" height="24" viewBox="0 0 24 24" fill="none">
<path d="M9.6975 20.7108L9.69753 20.7108L9.69355 20.7069L8.17356 19.1869L7.82001 19.5404L8.17356 19.1868C8.0437 19.057 7.86118 18.9642 7.72588 18.9083C7.59146 18.8528 7.39876 18.7904 7.22 18.7904H5.06C4.03617 18.7904 3.20999 17.9642 3.20999 16.9403V14.7804C3.20999 14.6016 3.14764 14.4089 3.09212 14.2745C3.03624 14.1392 2.94341 13.9567 2.81354 13.8268L1.29355 12.3069L0.941759 12.6586L1.29355 12.3069C0.945782 11.9591 0.75 11.4955 0.75 11.0003C0.75 10.5002 0.939036 10.0405 1.28956 9.69781L1.28958 9.69783L1.29356 9.69385L2.81354 8.17384C2.81354 8.17384 2.81355 8.17383 2.81355 8.17383C2.9434 8.04398 3.03623 7.86147 3.09212 7.72618C3.14764 7.59176 3.20999 7.39906 3.20999 7.2203V5.06039C3.20999 4.03651 4.03617 3.21029 5.06 3.21029H7.22C7.39876 3.21029 7.59146 3.14795 7.72588 3.09243C7.86118 3.03654 8.0437 2.94371 8.17356 2.81385L8.17357 2.81384L9.69356 1.29382C10.3783 0.609089 11.6217 0.609089 12.3064 1.29383L13.8264 2.81384L14.1749 2.46542L13.8264 2.81385C13.9563 2.94371 14.1388 3.03654 14.2741 3.09242C14.4085 3.14795 14.6012 3.21029 14.78 3.21029H16.94C17.9638 3.21029 18.79 4.03651 18.79 5.06039V7.2203C18.79 7.39906 18.8524 7.59176 18.9079 7.72618C18.9638 7.86148 19.0566 8.04398 19.1864 8.17384L20.7064 9.69385C21.0542 10.0416 21.25 10.5051 21.25 11.0003C21.25 11.5004 21.0609 11.9602 20.7104 12.3029L20.7104 12.3029L20.7064 12.3069L19.1864 13.8269C19.0566 13.9567 18.9638 14.1392 18.9079 14.2745C18.8523 14.4089 18.79 14.6016 18.79 14.7804V16.9403C18.79 17.9642 17.9638 18.7904 16.94 18.7904H14.78C14.6012 18.7904 14.4085 18.8528 14.2741 18.9083C14.1388 18.9642 13.9563 19.057 13.8264 19.1868L12.3064 20.7069L12.3064 20.7068L12.3025 20.7108C11.9598 21.0613 11.5001 21.2503 11 21.2503C10.4999 21.2503 10.0402 21.0613 9.6975 20.7108ZM18.8336 8.5268L18.48 8.88034L18.8336 8.52679C18.5269 8.22011 18.29 7.64706 18.29 7.2203V5.06039C18.29 4.31433 17.6862 3.71029 16.94 3.71029H14.78C14.3532 3.71029 13.7802 3.47346 13.4736 3.1668L11.9536 1.64678L11.6 2.00033L11.9536 1.64678C11.4383 1.13152 10.5617 1.13152 10.0464 1.64678L10.4 2.00033L10.0464 1.64678L8.52644 3.1668L8.88 3.52035L8.52644 3.1668C8.21979 3.47346 7.64679 3.71029 7.22 3.71029H5.06C4.31379 3.71029 3.70999 4.31432 3.70999 5.06039V7.2203C3.70999 7.64706 3.47312 8.22011 3.16644 8.52679L3.16643 8.5268L1.64645 10.0469C1.39515 10.2982 1.25 10.6342 1.25 11.0003C1.25 11.3663 1.3951 11.7025 1.64645 11.9539L3.16644 13.4739L3.51999 13.1203L3.16644 13.4739C3.47311 13.7805 3.70999 14.3536 3.70999 14.7804V16.9403C3.70999 17.6864 4.31379 18.2904 5.06 18.2904H7.22C7.64681 18.2904 8.21981 18.5272 8.52644 18.8339L8.88 18.4803L8.52645 18.8339L10.0464 20.3539C10.5617 20.8691 11.4383 20.8691 11.9536 20.3539L13.4736 18.8339C13.7802 18.5272 14.3532 18.2904 14.78 18.2904H16.94C17.6862 18.2904 18.29 17.6864 18.29 16.9403V14.7804C18.29 14.3536 18.5269 13.7805 18.8336 13.4739L20.3536 11.9539C20.6049 11.7025 20.75 11.3663 20.75 11.0003C20.75 10.6342 20.6049 10.2982 20.3536 10.0469L18.8336 8.5268Z"/>
<path d="M14.0002 14.5C13.7131 14.5 13.4902 14.2706 13.4902 14C13.4902 13.7261 13.7163 13.5 13.9902 13.5C14.264 13.5 14.4902 13.7261 14.4902 14C14.4902 14.2804 14.2675 14.5 14.0002 14.5Z"/>
<path d="M8.01001 8.5C7.7229 8.5 7.5 8.27062 7.5 8C7.5 7.72614 7.72614 7.5 8 7.5C8.27386 7.5 8.5 7.72614 8.5 8C8.5 8.28043 8.27734 8.5 8.01001 8.5Z"/>
<path d="M8.1759 14.1759L8.52945 14.5295L8.1759 14.176C8.12461 14.2272 8.064 14.2495 7.99945 14.2495C7.93491 14.2495 7.8743 14.2272 7.82301 14.176C7.72827 14.0812 7.72827 13.9178 7.82301 13.8231L13.8231 7.82301C13.9178 7.72827 14.0812 7.72827 14.176 7.82301C14.2707 7.91774 14.2707 8.08122 14.176 8.17596L8.1759 14.1759Z"/>
</symbol>

<symbol id="icon-key-square" width="24" height="24" viewBox="0 0 24 24" fill="none">
<path d="M9 22H15C20 22 22 20 22 15V9C22 4 20 2 15 2H9C4 2 2 4 2 9V15C2 20 4 22 9 22Z" stroke-width="1.5" stroke-linecap="round" stroke-linejoin="round"/>
<path d="M16.28 13.61C15.15 14.74 13.53 15.09 12.1 14.64L9.51001 17.22C9.33001 17.41 8.96001 17.53 8.69001 17.49L7.49001 17.33C7.09001 17.28 6.73001 16.9 6.67001 16.51L6.51001 15.31C6.47001 15.05 6.60001 14.68 6.78001 14.49L9.36001 11.91C8.92001 10.48 9.26001 8.86001 10.39 7.73001C12.01 6.11001 14.65 6.11001 16.28 7.73001C17.9 9.34001 17.9 11.98 16.28 13.61Z" stroke-width="1.5" stroke-miterlimit="10" stroke-linecap="round" stroke-linejoin="round"/>
<path d="M10.45 16.28L9.59998 15.42" stroke-width="1.5" stroke-miterlimit="10" stroke-linecap="round" stroke-linejoin="round"/>
<path d="M13.3945 10.7H13.4035" stroke-width="2" stroke-linecap="round" stroke-linejoin="round"/>
</symbol>

<symbol id="icon-message" xmlns="http://www.w3.org/2000/svg" width="22" height="21" viewBox="0 0 22 21" fill="none">
<path d="M6.40704 20.6696L6.40285 20.6674C6.00232 20.4566 5.75 20.0302 5.75 19.5699V18.15V17.6987L5.30106 17.6526C3.904 17.5092 2.77429 16.9287 1.99282 16.0408C1.21066 15.1522 0.75 13.9243 0.75 12.4399V6.43994C0.75 4.83448 1.28687 3.53018 2.18855 2.62849C3.09024 1.72681 4.39454 1.18994 6 1.18994H16C17.6055 1.18994 18.9098 1.72681 19.8114 2.62849C20.7131 3.53018 21.25 4.83448 21.25 6.43994V12.4399C21.25 14.0454 20.7131 15.3497 19.8114 16.2513C18.9098 17.153 17.6055 17.6899 16 17.6899H12.23H12.0786L11.9526 17.7739L7.69596 20.6118C7.69543 20.6121 7.69491 20.6125 7.69439 20.6128C7.48661 20.7485 7.24258 20.8199 7 20.8199C6.80136 20.8199 6.59297 20.7698 6.40704 20.6696ZM6.62275 20.2087L6.62279 20.2088C6.7865 20.307 7.09582 20.3908 7.40845 20.1918L7.4085 20.1919L7.41693 20.1863L11.8669 17.2263L11.8674 17.226C11.9122 17.1961 11.9668 17.18 12.01 17.18H16.01C17.4099 17.18 18.6074 16.7248 19.4561 15.8761C20.3047 15.0274 20.76 13.8299 20.76 12.43V6.42993C20.76 5.03004 20.3047 3.83257 19.4561 2.98388C18.6074 2.13518 17.4099 1.67993 16.01 1.67993H6C4.60011 1.67993 3.40264 2.13518 2.55395 2.98388C1.70525 3.83257 1.25 5.03004 1.25 6.42993V12.43C1.25 13.8299 1.70525 15.0274 2.55395 15.8761C3.40264 16.7248 4.60011 17.18 6 17.18C6.13386 17.18 6.25 17.2961 6.25 17.43V19.56C6.25 19.9525 6.51575 20.1445 6.62275 20.2087Z"/>
<path d="M10.9998 10.6099C10.8659 10.6099 10.7498 10.4938 10.7498 10.3599V10.1499C10.7498 9.27318 11.377 8.83611 11.7015 8.61303C11.8997 8.47896 12.0812 8.33433 12.2098 8.15518C12.3541 7.954 12.4098 7.74154 12.4098 7.5199C12.4098 6.74379 11.776 6.10986 10.9998 6.10986C10.2236 6.10986 9.5898 6.74379 9.5898 7.5199C9.5898 7.65376 9.47366 7.7699 9.3398 7.7699C9.206 7.7699 9.08984 7.65378 9.08984 7.5199C9.08984 6.46602 9.94597 5.60986 10.9998 5.60986C12.0537 5.60986 12.9098 6.46604 12.9098 7.5199C12.9098 8.37737 12.2904 8.81521 11.9809 9.02493C11.7742 9.16281 11.5849 9.31077 11.452 9.49635C11.3021 9.70568 11.2498 9.9248 11.2498 10.1499V10.3599C11.2498 10.4994 11.138 10.6099 10.9998 10.6099Z"/>
<path d="M11 13.2001C10.8044 13.2001 10.65 13.0427 10.65 12.8501C10.65 12.661 10.8109 12.5001 11 12.5001C11.1891 12.5001 11.35 12.661 11.35 12.8501C11.35 13.0427 11.1956 13.2001 11 13.2001Z" stroke-width="0.8"/>
</symbol>

<symbol id="icon-user" width="24" height="24" viewBox="0 0 24 24" fill="none">
<path d="M4.79478 20.861L4.79478 20.861L4.79172 20.8601C4.68699 20.8293 4.60462 20.7207 4.60957 20.5934C4.83669 17.9385 7.57437 15.7197 11.0006 15.7197C14.429 15.7197 17.1604 17.9321 17.3924 20.602C17.4023 20.7238 17.3334 20.8247 17.2132 20.859L17.2132 20.859L17.2065 20.861C16.3382 21.1224 15.2904 21.2498 14.0006 21.2498H8.00063C6.71082 21.2498 5.66302 21.1224 4.79478 20.861ZM5.23866 19.9268L5.09526 20.4462L5.62401 20.5504C6.32489 20.6884 7.10895 20.7498 8.00063 20.7498H14.0006C14.8923 20.7498 15.6764 20.6884 16.3772 20.5504L16.906 20.4462L16.7626 19.9268C16.1552 17.7264 13.7119 16.2197 11.0006 16.2197C8.28933 16.2197 5.84605 17.7264 5.23866 19.9268Z"/>
<path d="M14 1H8C3 1 1 3 1 8V14C1 17.78 2.14 19.85 4.86 20.62C5.08 18.02 7.75 15.97 11 15.97C14.25 15.97 16.92 18.02 17.14 20.62C19.86 19.85 21 17.78 21 14V8C21 3 19 1 14 1ZM11 13.17C9.02 13.17 7.42 11.56 7.42 9.58C7.42 7.60002 9.02 6 11 6C12.98 6 14.58 7.60002 14.58 9.58C14.58 11.56 12.98 13.17 11 13.17Z" stroke-width="1.5" stroke-linecap="round" stroke-linejoin="round"/>
<path d="M10.9999 13.42C8.88757 13.42 7.16992 11.6954 7.16992 9.58C7.16992 7.46616 8.88607 5.75 10.9999 5.75C13.1138 5.75 14.8299 7.46616 14.8299 9.58C14.8299 11.6954 13.1123 13.42 10.9999 13.42ZM10.9999 6.25C9.16375 6.25 7.66992 7.74388 7.66992 9.58C7.66992 11.425 9.16261 12.92 10.9999 12.92C12.8372 12.92 14.3299 11.425 14.3299 9.58C14.3299 7.74388 12.836 6.25 10.9999 6.25Z"/>
</symbol>

<symbol id="icon-wallet-money" width="24" height="24" viewBox="0 0 24 24" fill="none">
<path d="M10.7516 16.8604V18.8904C10.7516 20.6104 9.15158 22.0004 7.18158 22.0004C5.21158 22.0004 3.60156 20.6104 3.60156 18.8904V16.8604C3.60156 18.5804 5.20158 19.8004 7.18158 19.8004C9.15158 19.8004 10.7516 18.5704 10.7516 16.8604Z" stroke-width="1.5" stroke-linecap="round" stroke-linejoin="round"/>
<path d="M10.7501 14.11C10.7501 14.61 10.6101 15.07 10.3701 15.47C9.78006 16.44 8.57004 17.05 7.17004 17.05C5.77004 17.05 4.56003 16.43 3.97003 15.47C3.73003 15.07 3.59009 14.61 3.59009 14.11C3.59009 13.25 3.99007 12.48 4.63007 11.92C5.28007 11.35 6.17003 11.01 7.16003 11.01C8.15003 11.01 9.04006 11.36 9.69006 11.92C10.3501 12.47 10.7501 13.25 10.7501 14.11Z" stroke-width="1.5" stroke-linecap="round" stroke-linejoin="round"/>
<path d="M10.7516 14.11V16.86C10.7516 18.58 9.15158 19.8 7.18158 19.8C5.21158 19.8 3.60156 18.57 3.60156 16.86V14.11C3.60156 12.39 5.20158 11 7.18158 11C8.17158 11 9.06161 11.35 9.71161 11.91C10.3516 12.47 10.7516 13.25 10.7516 14.11Z" stroke-width="1.5" stroke-linecap="round" stroke-linejoin="round"/>
<path d="M22 10.9699V13.03C22 13.58 21.56 14.0299 21 14.0499H19.0399C17.9599 14.0499 16.97 13.2599 16.88 12.1799C16.82 11.5499 17.0599 10.9599 17.4799 10.5499C17.8499 10.1699 18.36 9.94995 18.92 9.94995H21C21.56 9.96995 22 10.4199 22 10.9699Z" stroke-width="1.5" stroke-linecap="round" stroke-linejoin="round"/>
<path d="M2 10.5V8.5C2 5.78 3.64 3.88 6.19 3.56C6.45 3.52 6.72 3.5 7 3.5H16C16.26 3.5 16.51 3.50999 16.75 3.54999C19.33 3.84999 21 5.76 21 8.5V9.95001H18.92C18.36 9.95001 17.85 10.17 17.48 10.55C17.06 10.96 16.82 11.55 16.88 12.18C16.97 13.26 17.96 14.05 19.04 14.05H21V15.5C21 18.5 19 20.5 16 20.5H13.5" stroke-width="1.5" stroke-linecap="round" stroke-linejoin="round"/>
</symbol>

</svg>